<svg width="582" height="202" xmlns="http://www.w3.org/2000/svg" xmlns:xlink="http://www.w3.org/1999/xlink" overflow="hidden"><defs><clipPath id="clip0"><rect x="1141" y="343" width="582" height="202"/></clipPath><linearGradient x1="1432" y1="346" x2="1432" y2="541" gradientUnits="userSpaceOnUse" spreadMethod="reflect" id="fill1"><stop offset="0" stop-color="#B5D5A7" stop-opacity="1"/><stop offset="0.5" stop-color="#AACE99" stop-opacity="1"/><stop offset="1" stop-color="#9CCA86" stop-opacity="1"/></linearGradient><linearGradient x1="1420.65" y1="369.632" x2="1430.51" y2="511.618" gradientUnits="userSpaceOnUse" spreadMethod="reflect" id="fill2"><stop offset="0" stop-color="#F18C55" stop-opacity="1"/><stop offset="0.5" stop-color="#F67B28" stop-opacity="1"/><stop offset="1" stop-color="#E56B17" stop-opacity="1"/></linearGradient></defs><g clip-path="url(#clip0)" transform="translate(-1141 -343)"><path d="M1147 412.857 1507.34 541 1703.9 463 1631.83 451.857 1717 418.429 1317.34 346 1147 412.857Z" stroke="#70AD47" stroke-width="2.29167" stroke-linecap="butt" stroke-linejoin="miter" stroke-miterlimit="8" stroke-opacity="1" fill="url(#fill1)" fill-rule="evenodd"/><path d="M1289.89 409.996C1277.26 412.006 1258.44 419.732 1253.22 417.074 1248 414.415 1248.19 400.43 1258.59 394.044 1268.99 387.657 1282.02 374.669 1315.6 378.757 1349.18 382.845 1425.99 413.008 1460.06 418.572 1494.13 424.137 1502.85 410.315 1520.01 412.144 1537.17 413.974 1549.79 422.915 1563.03 429.549 1576.26 436.182 1603.21 439.598 1599.42 451.944 1595.64 464.291 1558.17 498.99 1540.3 503.63 1522.42 508.269 1499.77 488.696 1492.18 479.782 1484.6 470.868 1521.96 462.61 1494.77 450.148 1467.58 437.686 1363.57 411.678 1329.04 405.012 1294.51 398.347 1302.53 407.986 1289.89 409.996Z" stroke="#ED7D31" stroke-width="2.29167" stroke-linecap="butt" stroke-linejoin="miter" stroke-miterlimit="8" stroke-opacity="1" fill="url(#fill2)" fill-rule="evenodd"/></g></svg>