<svg width="582" height="366" xmlns="http://www.w3.org/2000/svg" xmlns:xlink="http://www.w3.org/1999/xlink" overflow="hidden"><defs><clipPath id="clip0"><rect x="1645" y="770" width="582" height="366"/></clipPath><linearGradient x1="1936.5" y1="935" x2="1936.5" y2="1131" gradientUnits="userSpaceOnUse" spreadMethod="reflect" id="fill1"><stop offset="0" stop-color="#B5D5A7" stop-opacity="1"/><stop offset="0.5" stop-color="#AACE99" stop-opacity="1"/><stop offset="1" stop-color="#9CCA86" stop-opacity="1"/></linearGradient><linearGradient x1="1930.36" y1="959.373" x2="1940.22" y2="1101.36" gradientUnits="userSpaceOnUse" spreadMethod="reflect" id="fill2"><stop offset="0" stop-color="#F18C55" stop-opacity="1"/><stop offset="0.5" stop-color="#F67B28" stop-opacity="1"/><stop offset="1" stop-color="#E56B17" stop-opacity="1"/></linearGradient></defs><g clip-path="url(#clip0)" transform="translate(-1645 -770)"><path d="M1651 1002.2 2011.98 1131 2208.87 1052.6 2136.68 1041.4 2222 1007.8 1821.64 935 1651 1002.2Z" stroke="#70AD47" stroke-width="2.29167" stroke-linecap="butt" stroke-linejoin="miter" stroke-miterlimit="8" stroke-opacity="1" fill="url(#fill1)" fill-rule="evenodd"/><path d="M1799.6 999.736C1786.97 1001.75 1768.15 1009.47 1762.93 1006.81 1757.71 1004.16 1757.9 990.17 1768.3 983.784 1778.7 977.398 1791.73 964.409 1825.31 968.497 1858.89 972.585 1935.7 1002.75 1969.77 1008.31 2003.84 1013.88 2012.56 1000.06 2029.72 1001.88 2046.88 1003.71 2059.5 1012.66 2072.74 1019.29 2085.97 1025.92 2112.92 1029.34 2109.13 1041.68 2105.35 1054.03 2067.88 1088.73 2050.01 1093.37 2032.13 1098.01 2009.48 1078.44 2001.89 1069.52 1994.3 1060.61 2031.67 1052.35 2004.48 1039.89 1977.29 1027.43 1873.28 1001.42 1838.75 994.753 1804.22 988.088 1812.24 997.726 1799.6 999.736Z" stroke="#ED7D31" stroke-width="2.29167" stroke-linecap="butt" stroke-linejoin="miter" stroke-miterlimit="8" stroke-opacity="1" fill="url(#fill2)" fill-rule="evenodd"/><path d="M1653.39 1000.29 1815.2 1060C1815.8 1014.16 1816.4 968.318 1817 922.476L1648 870 1653.39 1000.29Z" fill="#5B9BD5" fill-rule="evenodd" fill-opacity="0.501961"/><path d="M1816.81 1060 1997.39 968.122 2001 824 1815 924.886C1815.6 970.524 1816.2 1016.16 1816.81 1060Z" fill="#5B9BD5" fill-rule="evenodd" fill-opacity="0.501961"/><path d="M1648 872.059 1815.4 930 2001 827.202 1813.58 773 1648 872.059Z" fill="#4472C4" fill-rule="evenodd" fill-opacity="0.501961"/></g></svg>