<svg width="582" height="293" xmlns="http://www.w3.org/2000/svg" xmlns:xlink="http://www.w3.org/1999/xlink" overflow="hidden"><defs><clipPath id="clip0"><rect x="2021" y="284" width="582" height="293"/></clipPath><linearGradient x1="2313" y1="378" x2="2313" y2="574" gradientUnits="userSpaceOnUse" spreadMethod="reflect" id="fill1"><stop offset="0" stop-color="#B5D5A7" stop-opacity="1"/><stop offset="0.5" stop-color="#AACE99" stop-opacity="1"/><stop offset="1" stop-color="#9CCA86" stop-opacity="1"/></linearGradient><linearGradient x1="2308.32" y1="406.065" x2="2318.18" y2="548.051" gradientUnits="userSpaceOnUse" spreadMethod="reflect" id="fill2"><stop offset="0" stop-color="#F18C55" stop-opacity="1"/><stop offset="0.5" stop-color="#F67B28" stop-opacity="1"/><stop offset="1" stop-color="#E56B17" stop-opacity="1"/></linearGradient></defs><g clip-path="url(#clip0)" transform="translate(-2021 -284)"><path d="M2028 445.2 2388.34 574 2584.9 495.6 2512.83 484.4 2598 450.8 2198.34 378 2028 445.2Z" stroke="#70AD47" stroke-width="2.29167" stroke-linecap="butt" stroke-linejoin="miter" stroke-miterlimit="8" stroke-opacity="1" fill="url(#fill1)" fill-rule="evenodd"/><path d="M2177.56 446.428C2164.92 448.439 2146.1 456.165 2140.89 453.506 2135.67 450.847 2135.86 436.863 2146.26 430.476 2156.65 424.09 2169.69 411.101 2203.27 415.189 2236.84 419.277 2313.66 449.441 2347.72 455.005 2381.79 460.569 2390.51 446.747 2407.67 448.577 2424.83 450.406 2437.46 459.348 2450.69 465.981 2463.93 472.615 2490.88 476.03 2487.09 488.377 2483.3 500.724 2445.83 535.423 2427.96 540.062 2410.09 544.702 2387.44 525.128 2379.85 516.214 2372.26 507.301 2409.63 499.042 2382.44 486.58 2355.25 474.119 2251.23 448.11 2216.7 441.445 2182.17 434.78 2190.2 444.418 2177.56 446.428Z" stroke="#ED7D31" stroke-width="2.29167" stroke-linecap="butt" stroke-linejoin="miter" stroke-miterlimit="8" stroke-opacity="1" fill="url(#fill2)" fill-rule="evenodd"/><path d="M2120.41 479.008 2230 516 2226.39 409.798 2118 374 2120.41 479.008Z" fill="#5B9BD5" fill-rule="evenodd" fill-opacity="0.501961"/><path d="M2118 376.345 2229.15 413 2393 309.909 2277.27 287 2118 376.345Z" fill="#4472C4" fill-rule="evenodd" fill-opacity="0.501961"/><path d="M2229 412.203 2231.28 519 2392 412.203C2391.62 378.135 2391.24 344.068 2390.86 310L2229 412.203Z" fill="#5B9BD5" fill-rule="evenodd" fill-opacity="0.501961"/></g></svg>