<svg width="582" height="280" xmlns="http://www.w3.org/2000/svg" xmlns:xlink="http://www.w3.org/1999/xlink" overflow="hidden"><defs><clipPath id="clip0"><rect x="2580" y="870" width="582" height="280"/></clipPath><linearGradient x1="2871" y1="950" x2="2871" y2="1146" gradientUnits="userSpaceOnUse" spreadMethod="reflect" id="fill1"><stop offset="0" stop-color="#B5D5A7" stop-opacity="1"/><stop offset="0.5" stop-color="#AACE99" stop-opacity="1"/><stop offset="1" stop-color="#9CCA86" stop-opacity="1"/></linearGradient><linearGradient x1="2866.09" y1="976.793" x2="2875.95" y2="1118.78" gradientUnits="userSpaceOnUse" spreadMethod="reflect" id="fill2"><stop offset="0" stop-color="#F18C55" stop-opacity="1"/><stop offset="0.5" stop-color="#F67B28" stop-opacity="1"/><stop offset="1" stop-color="#E56B17" stop-opacity="1"/></linearGradient></defs><g clip-path="url(#clip0)" transform="translate(-2580 -870)"><path d="M2586 1017.2 2946.34 1146 3142.9 1067.6 3070.83 1056.4 3156 1022.8 2756.34 950 2586 1017.2Z" stroke="#70AD47" stroke-width="2.29167" stroke-linecap="butt" stroke-linejoin="miter" stroke-miterlimit="8" stroke-opacity="1" fill="url(#fill1)" fill-rule="evenodd"/><path d="M2735.33 1017.16C2722.7 1019.17 2703.88 1026.89 2698.66 1024.23 2693.44 1021.58 2693.63 1007.59 2704.03 1001.2 2714.43 994.818 2727.46 981.83 2761.04 985.918 2794.62 990.006 2871.43 1020.17 2905.5 1025.73 2939.57 1031.3 2948.29 1017.48 2965.45 1019.31 2982.61 1021.13 2995.23 1030.08 3008.47 1036.71 3021.7 1043.34 3048.65 1046.76 3044.86 1059.11 3041.08 1071.45 3003.61 1106.15 2985.74 1110.79 2967.86 1115.43 2945.21 1095.86 2937.62 1086.94 2930.04 1078.03 2967.4 1069.77 2940.21 1057.31 2913.02 1044.85 2809.01 1018.84 2774.48 1012.17 2739.95 1005.51 2747.97 1015.15 2735.33 1017.16Z" stroke="#ED7D31" stroke-width="2.29167" stroke-linecap="butt" stroke-linejoin="miter" stroke-miterlimit="8" stroke-opacity="1" fill="url(#fill2)" fill-rule="evenodd"/><path d="M2717.41 1063.75 2827 1101 2823.39 994.051 2715 958 2717.41 1063.75Z" fill="#5B9BD5" fill-rule="evenodd" fill-opacity="0.501961"/><path d="M2715 960.345 2826.15 997 2990 893.909 2874.27 871 2715 960.345Z" fill="#4472C4" fill-rule="evenodd" fill-opacity="0.501961"/><path d="M2825 996.055 2827.28 1104 2901.44 1045.43 2898.01 990.313 2923.11 970.791C2923.49 989.165 2923.87 1007.54 2924.25 1025.91L2985.86 988.017C2986.24 957.011 2986.62 926.006 2987 895L2825 996.055Z" fill="#5B9BD5" fill-rule="evenodd" fill-opacity="0.501961"/></g></svg>