<svg width="582" height="293" xmlns="http://www.w3.org/2000/svg" xmlns:xlink="http://www.w3.org/1999/xlink" overflow="hidden"><defs><clipPath id="clip0"><rect x="2942" y="330" width="582" height="293"/></clipPath><linearGradient x1="3233" y1="426" x2="3233" y2="621" gradientUnits="userSpaceOnUse" spreadMethod="reflect" id="fill1"><stop offset="0" stop-color="#B5D5A7" stop-opacity="1"/><stop offset="0.5" stop-color="#AACE99" stop-opacity="1"/><stop offset="1" stop-color="#9CCA86" stop-opacity="1"/></linearGradient><linearGradient x1="3221.47" y1="451.643" x2="3231.33" y2="593.629" gradientUnits="userSpaceOnUse" spreadMethod="reflect" id="fill2"><stop offset="0" stop-color="#F18C55" stop-opacity="1"/><stop offset="0.5" stop-color="#F67B28" stop-opacity="1"/><stop offset="1" stop-color="#E56B17" stop-opacity="1"/></linearGradient></defs><g clip-path="url(#clip0)" transform="translate(-2942 -330)"><path d="M2948 492.857 3308.34 621 3504.9 543 3432.83 531.857 3518 498.429 3118.34 426 2948 492.857Z" stroke="#70AD47" stroke-width="2.29167" stroke-linecap="butt" stroke-linejoin="miter" stroke-miterlimit="8" stroke-opacity="1" fill="url(#fill1)" fill-rule="evenodd"/><path d="M3090.71 492.007C3078.08 494.017 3059.26 501.743 3054.04 499.084 3048.82 496.426 3049.01 482.441 3059.41 476.054 3069.8 469.668 3082.84 456.68 3116.42 460.768 3150 464.856 3226.81 495.019 3260.88 500.583 3294.94 506.147 3303.66 492.326 3320.82 494.155 3337.99 495.985 3350.61 504.926 3363.84 511.559 3377.08 518.193 3404.03 521.608 3400.24 533.955 3396.45 546.302 3358.99 581.001 3341.11 585.64 3323.24 590.28 3300.59 570.706 3293 561.793 3285.41 552.879 3322.78 544.62 3295.59 532.159 3268.4 519.697 3164.39 493.688 3129.85 487.023 3095.32 480.358 3103.35 489.996 3090.71 492.007Z" stroke="#ED7D31" stroke-width="2.29167" stroke-linecap="butt" stroke-linejoin="miter" stroke-miterlimit="8" stroke-opacity="1" fill="url(#fill2)" fill-rule="evenodd"/><path d="M3088.41 541.748 3198 579 3194.39 472.05 3086 436 3088.41 541.748Z" fill="#5B9BD5" fill-rule="evenodd" fill-opacity="0.501961"/><path d="M3086 438.345 3197.15 475 3361 371.909 3245.27 349 3086 438.345Z" fill="#4472C4" fill-rule="evenodd" fill-opacity="0.501961"/><path d="M3196 474.055 3198.28 582 3272.44 523.434 3269.01 468.313 3294.11 448.791C3294.49 467.165 3294.87 485.538 3295.25 503.912L3356.86 466.016C3357.24 435.011 3357.62 404.005 3358 373L3196 474.055Z" fill="#5B9BD5" fill-rule="evenodd" fill-opacity="0.501961"/><path d="M3225 347.696 3170.69 379 3064 355.522 3118.31 334 3225 347.696Z" fill="#4472C4" fill-rule="evenodd" fill-opacity="0.501961"/><path d="M3067 354 3067 445.394 3172 470C3171.61 439.535 3171.22 409.071 3170.83 378.606L3067 354Z" fill="#5B9BD5" fill-rule="evenodd" fill-opacity="0.501961"/><path d="M3172 378.544 3223.82 348C3224.22 380.11 3224.61 412.22 3225 444.33L3175.53 469 3172 378.544Z" fill="#5B9BD5" fill-rule="evenodd" fill-opacity="0.501961"/></g></svg>